<?xml version="1.0" encoding="utf-8"?>
<!-- Generator: Adobe Illustrator 25.0.0, SVG Export Plug-In . SVG Version: 6.00 Build 0)  -->
<svg version="1.1" id="Layer_1" xmlns="http://www.w3.org/2000/svg" xmlns:xlink="http://www.w3.org/1999/xlink" x="0px" y="0px"
	 viewBox="0 0 1920 1080" style="enable-background:new 0 0 1920 1080;" xml:space="preserve">
<style type="text/css">
	.st0{fill:none;stroke:#fff;stroke-miterlimit:10;stroke-width:4px;}
	.st1{stroke:#fff;stroke-miterlimit:10;stroke-width:4px;}
</style>
<path class="st0" d="M1209.4,356.7c0,0-481-19-666.2,162.9l-29.4,27.5c0,0-1.2,0.6-3.3,1.7c-15.6,8.3-82.6,46.1-82.6,87.2
	c0,46.5,36.1,97.3,320.7,114.2l483.3,4.2V358.1L1209.4,356.7z"/>
<path class="st0" d="M475.4,621.1c0,0-27,0.3-45.1,10.7"/>
<path class="st0" d="M475.4,582.7c0,0-42.5,28.1-47.4,49"/>
<path class="st0" d="M475.4,680.2c0,0-47.1-17-47.4-44.3"/>
<polyline class="st0" points="483.7,564.3 483.7,586.3 483.7,701.9 "/>
<line class="st0" x1="583.8" y1="587.3" x2="483.7" y2="586.3"/>
<line class="st0" x1="592.3" y1="479.5" x2="592.3" y2="513.2"/>
<line class="st0" x1="661.8" y1="441.1" x2="662" y2="740.9"/>
<line class="st0" x1="583.8" y1="718.4" x2="583.8" y2="558.2"/>
<path class="st0" d="M496,707.2l6.5-9.9c0,0,54.2,21.2,108.4,25.4v11.8"/>
<line class="st0" x1="662" y1="734.5" x2="610.9" y2="726.9"/>
<polygon class="st0" points="516.1,545 541.3,545 561.2,519.6 541.9,520.8 "/>
<polygon class="st0" points="570.3,519.6 550.4,545 560.3,552.2 582.4,552.2 582.4,523 579.3,519.6 "/>
<polygon class="st0" points="588.6,519.6 588.6,552.2 592.3,554.1 599,554.1 610.9,549.2 610.9,542.6 598.8,519.6 "/>
<polyline class="st0" points="541.3,545 548.8,558.2 613.4,558.2 618.3,552.2 618.3,534.1 615.5,523.8 615.5,515.4 607.9,513.2 
	566.4,513.2 561.2,519.6 "/>
<polyline class="st0" points="583.8,689.5 840.3,689.5 840.3,748.8 "/>
<polyline class="st0" points="840.3,386 840.3,689.5 937.9,689.5 "/>
<line class="st0" x1="751.3" y1="408" x2="751.3" y2="527.3"/>
<line class="st0" x1="662" y1="493" x2="840.3" y2="493"/>
<polyline class="st0" points="662,513.2 607.9,513.2 550.4,513.2 "/>
<polygon class="st0" points="520.6,612.7 520.6,629.7 543.2,629.6 543.2,612.7 "/>
<ellipse class="st0" cx="531.9" cy="621.1" rx="6.8" ry="4.2"/>
<ellipse class="st0" cx="620" cy="608.4" rx="4.5" ry="4.2"/>
<ellipse class="st0" cx="620" cy="633.8" rx="4.5" ry="4.2"/>
<ellipse class="st0" cx="615.5" cy="663.4" rx="4.5" ry="4.2"/>
<ellipse class="st0" cx="613.2" cy="580.9" rx="2.3" ry="2.1"/>
<line class="st0" x1="603.6" y1="663.4" x2="624.5" y2="663.4"/>
<line class="st0" x1="710.3" y1="523.8" x2="791.6" y2="511.1"/>
<path class="st0" d="M727.5,527.3l42.8,0.7c0,0,8.2-0.7,9.2,7.5c0.2,12,0.5,82.4,0.5,82.4s-0.2,7.4-11.8,7.4c-13.6,0-44.3,0-44.3,0
	s-9,0-9-8.5s0-80.4,0-80.4S713.9,527.3,727.5,527.3z"/>
<polygon class="st0" points="737.4,566.1 732.7,566.1 732.7,570.6 735.1,576.7 732.7,580.9 732.7,585.2 737.4,585.2 742.6,585.2 
	742.6,581.2 740,576.7 742.6,570.9 742.6,566.1 "/>
<ellipse class="st1" cx="766.8" cy="568.2" rx="4.5" ry="4.2"/>
<path class="st1" d="M714.8,616.9"/>
<polyline class="st0" points="780,616.9 790.2,616.9 790.2,632 704.6,632 704.6,616.9 714.8,616.9 "/>
<line class="st0" x1="751.3" y1="632" x2="751.3" y2="689.5"/>
<rect x="868.4" y="705.7" class="st0" width="30.4" height="15.3"/>
<path class="st0" d="M937.9,625.4v8.8v93.8c0,0-1.8,7.4,11.8,7.4c13.6,0,137.6,0,137.6,0s7,0,7-12.7c0-1.2,0-3,0-5.2
	c0-22.2,0-90.8,0-90.8s0-5.5-13.6-5.5c-13.6,0-130.7,0-130.7,0S939.7,621.1,937.9,625.4z"/>
<line class="st0" x1="1094.2" y1="633.8" x2="937.9" y2="634.1"/>
<polyline class="st0" points="937.9,716.3 945.7,716.3 1094.2,716.3 "/>
<path class="st0" d="M945.2,718.4"/>
<polyline class="st0" points="1094.2,689.5 1218,689.5 1234.3,689.5 "/>
<path class="st0" d="M840.3,595.6c0,0,240.4-5.1,394-2.5"/>
<path class="st0" d="M840.3,467.7c0,0,258.5-7.7,394-3.3"/>
<line class="st0" x1="542.3" y1="546.7" x2="512.8" y2="546.7"/>
<line class="st0" x1="544.3" y1="518.6" x2="563.1" y2="517.3"/>
<polygon class="st0" points="937.9,616.9 1094.2,616.9 1094.2,626.6 937.8,626.6 "/>
<rect x="947.4" y="716.3" class="st0" width="22.6" height="12.7"/>
<rect x="974.5" y="716.3" class="st0" width="22.6" height="12.7"/>
<rect x="1001.6" y="716.3" class="st0" width="22.6" height="12.7"/>
<rect x="1028.7" y="716.3" class="st0" width="22.6" height="12.7"/>
<rect x="1055.8" y="716.3" class="st0" width="22.6" height="12.7"/>
</svg>
