<?xml version="1.0" encoding="UTF-8" standalone="no"?>
<svg
        xmlns:dc="http://purl.org/dc/elements/1.1/"
        xmlns:cc="http://creativecommons.org/ns#"
        xmlns:rdf="http://www.w3.org/1999/02/22-rdf-syntax-ns#"
        xmlns:svg="http://www.w3.org/2000/svg"
        xmlns="http://www.w3.org/2000/svg"
        xmlns:sodipodi="http://sodipodi.sourceforge.net/DTD/sodipodi-0.dtd"
        xmlns:inkscape="http://www.inkscape.org/namespaces/inkscape"
        id="Layer_1"
        data-name="Layer 1"
        viewBox="0 0 731.20935 634.97906"
        version="1.1"
        sodipodi:docname="FBW-Tail.svg"
        width="731.20935"
        height="634.97906"
        inkscape:version="1.0.1 (3bc2e813f5, 2020-09-07)"
        inkscape:export-filename="N:\!Mod REPOs\fbw-branding\png\FBW-Tail.png"
        inkscape:export-xdpi="96"
        inkscape:export-ydpi="96">
    <metadata
            id="metadata134">
        <rdf:RDF>
            <cc:Work
                    rdf:about="">
                <dc:format>image/svg+xml</dc:format>
                <dc:type
                        rdf:resource="http://purl.org/dc/dcmitype/StillImage" />
                <dc:title />
            </cc:Work>
        </rdf:RDF>
    </metadata>
    <sodipodi:namedview
            pagecolor="#ffffff"
            bordercolor="#666666"
            borderopacity="1"
            objecttolerance="10"
            gridtolerance="10"
            guidetolerance="10"
            inkscape:pageopacity="0"
            inkscape:pageshadow="2"
            inkscape:window-width="1920"
            inkscape:window-height="1017"
            id="namedview132"
            showgrid="false"
            inkscape:zoom="0.47981936"
            inkscape:cx="229.35677"
            inkscape:cy="145.90716"
            inkscape:window-x="-8"
            inkscape:window-y="-8"
            inkscape:window-maximized="1"
            inkscape:current-layer="Layer_1"
            inkscape:document-rotation="0" />
    <defs
            id="defs87">
        <style
                id="style85">.cls-1{fill:#fff;}.cls-2{fill:#01c2cb;}.cls-3{fill:#649aae;}.cls-4{fill:#669bb0;}.cls-5{fill:#595757;}.cls-6{fill:#679aaf;}.cls-7{fill:#585858;}.cls-8{fill:#05c3cc;}.cls-9{fill:#06c4cc;}.cls-10{fill:#679bb0;}.cls-11{fill:#05c4cd;}.cls-12{fill:#06c2cb;}.cls-13{fill:#595555;}.cls-14{fill:#565959;}.cls-15{fill:#595858;}.cls-16{fill:#feffff;}.cls-17{fill:#fefefe;}.cls-18{fill:#fdfeff;}</style>
    </defs>
    <path
            class="cls-2"
            d="m 441.50045,634.40484 c -1.61235,0.1987 -3.2247,0.508 -4.83705,0.5742 -2.2087,0 -4.54993,0 -6.82489,0 H 12.548891 c -3.2467902,0 -6.4935802,-0.1325 -9.7624602,-0.2209 a 3.0038315,3.0038315 0 0 1 -2.60626004,-2.4295 c 0,-0.3313 -0.15461,-0.6405 -0.1767,-0.9498 0,-9.4532 0,-18.8843 0,-28.3376 a 4.1302684,4.1302684 0 0 1 3.31305004,-4.2186 c 7.5095802,-2.2087 15.0191602,-4.4174 22.5066502,-6.6261 23.125086,-6.7586 45.985128,-14.2903 68.359258,-23.3018 a 452.4963,452.4963 0 0 0 90.247471,-48.2159 401.32073,401.32073 0 0 0 68.7789,-60.43 440.01715,440.01715 0 0 0 55.21749,-76.66399 q 24.49448,-42.80458 47.33244,-86.53683 56.12306,-106.72437 112.04733,-213.53709 c 7.08993,-13.56141 14.11359,-27.14491 21.22561,-40.68424 1.65652,-3.18053 3.33513,-6.36106 5.27879,-9.36489 a 68.823082,68.823082 0 0 1 49.254,-31.80528 83.488847,83.488847 0 0 1 12.65585,-0.90556 q 42.95921,0 85.98468,0 a 26.371874,26.371874 0 0 1 8.8348,0.64052 c 0.508,4.0861 -1.39148,7.6421 -2.60627,11.30854 q -15.4609,46.75818 -31.09849,93.45009 L 444.1288,624.99574 c -1.016,3.1143 -1.74487,6.2948 -2.62835,9.4091 z"
            id="path91"
            style="stroke-width:2.2087" />
    <path
            class="cls-3"
            d="m 432.66565,633.72014 c 0.88348,-3.1143 1.61235,-6.2948 2.62835,-9.3649 L 608.50023,105.50958 Q 624.07156,58.79559 639.59872,12.0595 c 1.21479,-3.66644 3.11427,-7.22245 2.60627,-11.30854 A 42.58373,42.58373 0 0 1 647.94761,0 q 38.58598,0 77.19405,0 a 18.155511,18.155511 0 0 1 4.70453,0.83931 c 0.508,0.13252 0.94974,0.86139 1.17061,1.41356 a 3.9314854,3.9314854 0 0 1 0.13252,1.89949 c -2.09826,12.50124 -4.26279,24.98039 -6.33897,37.54789 -2.20869,13.47307 -4.41739,26.96822 -6.62609,40.44129 -1.59027,9.60784 -3.29097,19.21569 -4.90332,28.82353 -1.61235,9.60784 -3.18052,19.23778 -4.77079,28.86771 -1.59026,9.62993 -3.15844,19.23777 -4.77079,28.84561 -1.61235,9.60785 -3.26888,19.23778 -4.90331,28.84562 -1.78905,10.57967 -3.60018,21.13726 -5.34506,31.73902 -2.2087,13.45098 -4.4174,26.94613 -6.6261,40.4192 -1.59026,9.60784 -3.29096,19.21569 -4.90331,28.7131 -1.61235,9.4974 -3.15844,19.25986 -4.77079,28.8677 l -5.01375,29.81745 c -1.59026,9.60787 -3.15844,19.23777 -4.77079,28.84557 l -5.01375,29.81749 -4.77079,28.8677 c -1.59026,9.6078 -3.15844,19.2378 -4.77079,28.8456 l -4.99166,29.8175 -4.79288,28.8456 -4.99166,29.8174 -4.79288,28.8677 q -2.49583,14.9087 -5.01375,29.7954 c -0.41965,2.5621 -1.03809,5.1021 -1.41357,7.6863 -0.86139,5.7205 -1.45774,6.0739 -7.73044,6.0518 -0.97183,0 -1.94366,0 -2.91549,0 q -86.97859,0 -173.9351,0 c -3.13635,0 -6.38314,-0.2871 -9.60784,-0.6184 z"
            id="path93"
            style="stroke-width:2.2087" />
</svg>
