<svg width="412" height="119" viewBox="0 0 412 119" fill="none" xmlns="http://www.w3.org/2000/svg">
<path d="M63.9999 34H48.749C45.8214 34 43.1277 35.5991 41.7258 38.1692L20 78C13.44 90 5.73826 94 0 94H52L63.9999 34Z" fill="url(#paint0_linear_1113_454)"/>
<path d="M87.6 94H96.2213V34.6H87.6V94ZM108.567 94H117.312V70.8175C117.312 67.2975 117.821 64.4925 118.838 62.4025C119.883 60.285 121.258 58.7587 122.963 57.8237C124.668 56.8887 126.552 56.4212 128.615 56.4212C130.98 56.4212 132.905 56.9025 134.39 57.865C135.875 58.8275 137.016 60.0925 137.813 61.66C138.611 63.2275 139.147 64.9325 139.422 66.775C139.725 68.59 139.876 70.3637 139.876 72.0962V94H148.621V69.25C148.621 67.875 148.497 66.28 148.25 64.465C148.002 62.65 147.535 60.7937 146.847 58.8962C146.16 56.9987 145.156 55.2525 143.836 53.6575C142.543 52.035 140.852 50.7287 138.762 49.7387C136.672 48.7487 134.087 48.2537 131.007 48.2537C127.79 48.2537 124.93 48.8312 122.427 49.9862C119.952 51.1412 117.903 52.7362 116.281 54.7712V49.45H108.567V94ZM176.402 95.1963C182.039 95.1963 186.453 93.945 189.643 91.4425C192.86 88.94 194.469 85.4887 194.469 81.0887C194.469 78.7787 193.988 76.8262 193.025 75.2312C192.09 73.6362 190.523 72.2612 188.323 71.1062C186.123 69.9237 183.153 68.8512 179.413 67.8887C175.92 67.0087 173.28 66.2525 171.493 65.62C169.733 64.96 168.537 64.3 167.904 63.64C167.272 62.9525 166.955 62.1137 166.955 61.1237C166.955 59.4187 167.767 58.085 169.389 57.1225C171.012 56.1325 173.129 55.6925 175.742 55.8025C178.464 55.9125 180.678 56.6 182.383 57.865C184.088 59.1025 185.092 60.78 185.394 62.8975L194.222 61.2887C193.727 57.3287 191.788 54.1662 188.405 51.8012C185.023 49.4087 180.774 48.2125 175.659 48.2125C170.434 48.2125 166.24 49.4362 163.078 51.8837C159.915 54.3037 158.334 57.535 158.334 61.5775C158.334 63.75 158.802 65.6062 159.737 67.1462C160.699 68.6587 162.294 69.9787 164.522 71.1062C166.777 72.2337 169.815 73.3062 173.638 74.3237C177.13 75.2587 179.729 76.0425 181.434 76.675C183.139 77.3075 184.253 77.9812 184.775 78.6962C185.325 79.3837 185.6 80.2912 185.6 81.4187C185.6 83.3437 184.83 84.8562 183.29 85.9562C181.778 87.0562 179.674 87.6062 176.979 87.6062C174.009 87.6062 171.52 86.9462 169.513 85.6262C167.533 84.3062 166.268 82.4775 165.718 80.14L156.89 81.5012C157.66 85.8462 159.75 89.215 163.16 91.6075C166.57 94 170.984 95.1963 176.402 95.1963ZM229.089 94V86.6987C226.174 87.1387 223.63 87.235 221.458 86.9875C219.313 86.7125 217.745 85.7362 216.755 84.0587C216.233 83.1512 215.944 82.0375 215.889 80.7175C215.861 79.3975 215.848 77.8437 215.848 76.0562V56.38H229.089V49.45H215.848V37.075H207.185V49.45H198.646V56.38H207.185V76.4687C207.185 78.8887 207.213 81.0612 207.268 82.9862C207.35 84.8837 207.873 86.7537 208.835 88.5962C209.935 90.6587 211.544 92.1712 213.661 93.1337C215.779 94.0962 218.185 94.6188 220.88 94.7013C223.575 94.7838 226.311 94.55 229.089 94ZM251.063 95.2375C258.158 95.2375 263.507 92.6662 267.109 87.5237V94H274.74V66.5687C274.74 64.6987 274.658 62.9525 274.493 61.33C274.328 59.7075 273.888 58.1675 273.173 56.71C271.798 53.7675 269.625 51.6225 266.655 50.275C263.713 48.9 260.248 48.2125 256.26 48.2125C251.118 48.2125 246.993 49.34 243.885 51.595C240.778 53.85 238.688 56.8887 237.615 60.7112L245.659 63.1862C246.429 60.7112 247.79 58.9237 249.743 57.8237C251.695 56.7237 253.84 56.1737 256.178 56.1737C259.643 56.1737 262.145 56.9162 263.685 58.4012C265.253 59.8587 266.105 62.1275 266.243 65.2075C262.613 65.7025 259.065 66.225 255.6 66.775C252.135 67.2975 249.11 67.93 246.525 68.6725C243.088 69.7725 240.475 71.4087 238.688 73.5812C236.9 75.7537 236.007 78.5175 236.007 81.8725C236.007 84.2925 236.57 86.52 237.698 88.555C238.853 90.5625 240.544 92.185 242.772 93.4225C245.027 94.6325 247.79 95.2375 251.063 95.2375ZM252.589 88.1837C249.839 88.1837 247.804 87.5512 246.484 86.2862C245.192 85.0212 244.545 83.5225 244.545 81.79C244.545 80.03 245.123 78.6412 246.278 77.6237C247.46 76.6062 248.932 75.795 250.692 75.19C252.562 74.64 254.762 74.1587 257.292 73.7462C259.849 73.3337 262.805 72.88 266.16 72.385C266.133 73.43 266.064 74.5987 265.954 75.8912C265.844 77.1837 265.61 78.3387 265.253 79.3562C264.923 80.8137 264.222 82.2162 263.149 83.5637C262.104 84.9112 260.688 86.025 258.9 86.905C257.14 87.7575 255.037 88.1837 252.589 88.1837ZM286.277 94H294.898V33.3625H286.277V94ZM308.11 94H316.732V33.3625H308.11V94ZM348.878 95.2375C353.195 95.2375 357.114 94.1512 360.634 91.9787C364.154 89.7787 366.78 86.685 368.513 82.6975L360.056 80.0162C357.801 84.7462 353.938 87.1112 348.465 87.1112C344.725 87.1112 341.783 85.9837 339.638 83.7287C337.493 81.4737 336.241 78.2837 335.884 74.1587H369.09C369.393 68.8237 368.76 64.2175 367.193 60.34C365.625 56.4625 363.246 53.4787 360.056 51.3888C356.866 49.2712 353.003 48.2125 348.465 48.2125C344.12 48.2125 340.311 49.1887 337.039 51.1412C333.766 53.0937 331.209 55.8575 329.366 59.4325C327.551 63.0075 326.644 67.2287 326.644 72.0962C326.644 76.6887 327.565 80.7312 329.407 84.2237C331.278 87.6887 333.876 90.3975 337.204 92.35C340.559 94.275 344.45 95.2375 348.878 95.2375ZM348.795 55.8437C355.533 55.8437 359.355 59.7075 360.263 67.435H336.09C336.64 63.6675 337.974 60.7937 340.091 58.8137C342.209 56.8337 345.11 55.8437 348.795 55.8437ZM378.345 94H387.049V71.5187C387.049 68.9062 387.461 66.4862 388.286 64.2587C389.111 62.0312 390.569 60.2437 392.659 58.8962C394.144 57.9337 395.78 57.37 397.567 57.205C399.355 57.04 400.964 57.15 402.394 57.535V49.45C400.386 49.065 398.255 49.0787 396 49.4913C393.772 49.9037 391.82 50.7287 390.142 51.9662C388.492 53.0662 387.117 54.5925 386.017 56.545V49.45H378.345V94Z" fill="white"/>
<defs>
<linearGradient id="paint0_linear_1113_454" x1="51" y1="62" x2="32.1" y2="56.647" gradientUnits="userSpaceOnUse">
<stop stop-color="#00E0FE"/>
<stop offset="1" stop-color="#02CCFF"/>
</linearGradient>
</defs>
</svg>
