<svg width="172" height="25" viewBox="0 0 172 25" fill="none" xmlns="http://www.w3.org/2000/svg">
    <path d="M43.5596 24H47.9116V0.95998H43.5596V24Z" fill="#8C8C8C"/>
    <path d="M52.6763 24H57.0923V15.232C57.0923 14.1546 57.2097 13.2906 57.4443 12.64C57.6897 11.9893 57.999 11.4986 58.3723 11.168C58.7457 10.8266 59.1457 10.5973 59.5723 10.48C59.999 10.3626 60.399 10.304 60.7723 10.304C61.7003 10.304 62.415 10.512 62.9163 10.928C63.4283 11.344 63.7963 11.8613 64.0203 12.48C64.2443 13.0986 64.3777 13.7173 64.4203 14.336C64.463 14.944 64.4843 15.4453 64.4843 15.84V24H68.9003V14.304C68.9003 14.016 68.879 13.5573 68.8363 12.928C68.7937 12.2986 68.671 11.6053 68.4683 10.848C68.2657 10.08 67.9243 9.34398 67.4443 8.63998C66.975 7.93598 66.3137 7.35465 65.4603 6.89598C64.607 6.43731 63.503 6.20798 62.1483 6.20798C60.9003 6.20798 59.8123 6.41598 58.8843 6.83198C57.9563 7.24798 57.1777 7.80265 56.5483 8.49598V6.71998H52.6763V24Z" fill="#8C8C8C"/>
    <path d="M79.8041 24.48C82.0654 24.48 83.8361 23.9733 85.1161 22.96C86.3961 21.9466 87.0361 20.5546 87.0361 18.784C87.0361 17.44 86.6201 16.3786 85.7881 15.6C84.9667 14.8213 83.5694 14.176 81.5961 13.664C80.2521 13.3226 79.2494 13.0453 78.5881 12.832C77.9374 12.6186 77.5054 12.4106 77.2921 12.208C77.0894 12.0053 76.9881 11.7546 76.9881 11.456C76.9881 10.9546 77.2281 10.5706 77.7081 10.304C78.1987 10.0373 78.8441 9.93065 79.6441 9.98398C81.3401 10.112 82.2681 10.8373 82.4281 12.16L86.8761 11.36C86.6521 9.79198 85.8841 8.54931 84.5721 7.63198C83.2601 6.70398 81.5854 6.23998 79.5481 6.23998C77.4574 6.23998 75.7881 6.73065 74.5401 7.71198C73.2921 8.69331 72.6681 10.016 72.6681 11.68C72.6681 13.0026 73.1001 14.048 73.9641 14.816C74.8281 15.5733 76.3161 16.224 78.4281 16.768C79.6761 17.0986 80.5934 17.3653 81.1801 17.568C81.7774 17.7706 82.1614 17.9786 82.3321 18.192C82.5027 18.3946 82.5881 18.6666 82.5881 19.008C82.5881 19.552 82.3747 19.9786 81.9481 20.288C81.5214 20.5866 80.9134 20.736 80.1241 20.736C79.1641 20.736 78.3694 20.5066 77.7401 20.048C77.1214 19.5893 76.7214 18.9546 76.5401 18.144L72.0921 18.816C72.3801 20.6186 73.1907 22.016 74.5241 23.008C75.8681 23.9893 77.6281 24.48 79.8041 24.48Z" fill="#8C8C8C"/>
    <path d="M100.92 24V20.384C99.8961 20.5226 98.9627 20.5653 98.1201 20.512C97.2774 20.4586 96.6641 20.128 96.2801 19.52C96.0774 19.2 95.9654 18.7733 95.9441 18.24C95.9334 17.696 95.9281 17.088 95.9281 16.416V10.08H100.92V6.71998H95.9281V1.91998H91.5761V6.71998H88.6321V10.08H91.5761V16.672C91.5761 17.7066 91.5867 18.6346 91.6081 19.456C91.6294 20.2666 91.8534 21.0666 92.2801 21.856C92.7494 22.6986 93.4321 23.312 94.3281 23.696C95.2347 24.0693 96.2587 24.2666 97.4001 24.288C98.5521 24.32 99.7254 24.224 100.92 24Z" fill="#8C8C8C"/>
    <path d="M109.571 24.48C110.904 24.48 112.024 24.2773 112.931 23.872C113.848 23.456 114.691 22.7946 115.459 21.888V24H119.267V13.44C119.267 12.6506 119.235 11.936 119.171 11.296C119.107 10.656 118.904 10.016 118.563 9.37598C117.955 8.22398 117.059 7.41331 115.875 6.94398C114.691 6.47465 113.336 6.23998 111.811 6.23998C109.731 6.23998 108.088 6.68798 106.883 7.58398C105.677 8.47998 104.856 9.64265 104.419 11.072L108.355 12.32C108.632 11.5306 109.117 10.9813 109.811 10.672C110.504 10.3626 111.171 10.208 111.811 10.208C112.835 10.208 113.597 10.4 114.099 10.784C114.6 11.1573 114.893 11.7493 114.979 12.56C113.357 12.7946 111.928 13.024 110.691 13.248C109.453 13.4613 108.419 13.7173 107.587 14.016C106.2 14.528 105.224 15.2266 104.659 16.112C104.093 16.9866 103.811 18.0266 103.811 19.232C103.811 20.192 104.029 21.072 104.467 21.872C104.915 22.6613 105.565 23.296 106.419 23.776C107.283 24.2453 108.333 24.48 109.571 24.48ZM110.499 21.056C109.752 21.056 109.16 20.8906 108.723 20.56C108.285 20.2186 108.067 19.7546 108.067 19.168C108.067 18.7306 108.205 18.3573 108.483 18.048C108.76 17.728 109.219 17.44 109.859 17.184C110.349 17.0026 110.952 16.8373 111.667 16.688C112.392 16.528 113.485 16.3253 114.947 16.08C114.936 16.496 114.904 16.9546 114.851 17.456C114.797 17.9466 114.68 18.3786 114.499 18.752C114.381 18.9973 114.157 19.3013 113.827 19.664C113.507 20.0266 113.069 20.352 112.515 20.64C111.971 20.9173 111.299 21.056 110.499 21.056Z" fill="#8C8C8C"/>
    <path d="M123.747 24H128.099V0.47998H123.747V24Z" fill="#8C8C8C"/>
    <path d="M133.216 24H137.568V0.47998H133.216V24Z" fill="#8C8C8C"/>
    <path d="M150.397 24.48C152.061 24.48 153.591 24.0426 154.989 23.168C156.397 22.2933 157.426 21.0666 158.077 19.488L153.725 18.24C153.063 19.6906 151.869 20.416 150.141 20.416C148.957 20.416 148.023 20.0853 147.341 19.424C146.669 18.7626 146.253 17.8133 146.093 16.576H158.221C158.402 14.4853 158.189 12.6666 157.581 11.12C156.973 9.57331 156.034 8.37331 154.765 7.51998C153.495 6.66665 151.954 6.23998 150.141 6.23998C148.434 6.23998 146.925 6.62931 145.613 7.40798C144.301 8.17598 143.271 9.25865 142.525 10.656C141.778 12.0533 141.405 13.696 141.405 15.584C141.405 17.312 141.783 18.848 142.541 20.192C143.309 21.5253 144.365 22.576 145.709 23.344C147.063 24.1013 148.626 24.48 150.397 24.48ZM150.333 10.016C151.378 10.016 152.178 10.2773 152.733 10.8C153.298 11.3226 153.661 12.1706 153.821 13.344H146.205C146.663 11.1253 148.039 10.016 150.333 10.016Z" fill="#8C8C8C"/>
    <path d="M161.833 24H166.217V15.168C166.217 13.1626 167.007 11.7973 168.585 11.072C169.097 10.8266 169.668 10.6826 170.297 10.64C170.937 10.5866 171.497 10.6346 171.977 10.784V6.71998C171.199 6.62398 170.42 6.64531 169.641 6.78398C168.863 6.91198 168.159 7.16798 167.529 7.55198C167.124 7.78665 166.767 8.06931 166.457 8.39998C166.159 8.73065 165.897 9.09865 165.673 9.50398V6.71998H161.833V24Z" fill="#8C8C8C"/>
    <path d="M25 1H18.364C17.6378 1 16.9687 1.39362 16.6159 2.02835L7.81251 17.8667C5.07813 22.4667 2.24151 24 0 24H20.3125L25 1Z" fill="#8C8C8C"/>
</svg>
