<?xml version="1.0" encoding="utf-8"?>
<!-- Generator: Adobe Illustrator 25.0.0, SVG Export Plug-In . SVG Version: 6.00 Build 0)  -->
<svg version="1.1" id="Layer_1" xmlns="http://www.w3.org/2000/svg" xmlns:xlink="http://www.w3.org/1999/xlink" x="0px" y="0px"
	 viewBox="0 0 1920 1080" style="enable-background:new 0 0 1920 1080;" xml:space="preserve">
<style type="text/css">
	.st0{fill:none;stroke:#fff;stroke-width:4px;stroke-miterlimit:10;}
</style>
<path class="st0" d="M531.28,736.4c12.58,1.76,37.88,4.18,50.54,5.25c69.39,5.83,81.39,5.65,111.13,6.88
	c166.08,6.86,342,1.83,342,1.83l-2.61-269.48h-280.7l-24.52,1.57l6.78-27.13h-4.17l-19.3,27.91c0,0-65.47,2.13-129.07,18.11
	c-43.23,10.86-85.6,28.12-105.97,55.46l-25.83,26.61c0,0-88.71,30.16-90.52,71.74C358.78,661.13,351.87,711.23,531.28,736.4z"/>
<polygon class="st0" points="456.93,584.96 478.46,581.83 500.96,556.98 500.96,554.04 475.39,556.78 451.08,581.84 "/>
<polygon class="st0" points="511.26,553.39 490.13,578.83 490.13,581.43 508.26,587.04 527.17,587.04 528.87,584.43 528.87,554.57 
	526.78,552.61 "/>
<polygon class="st0" points="536.96,585.61 539.57,588.74 564.61,588.74 567.48,585.61 567.48,562.78 559,554.04 539.83,554.04 
	536.96,556.39 "/>
<polygon class="st0" points="562,594.22 536.96,594.22 532.65,590.17 532.65,553.13 537.48,549.22 562,549.22 571.91,559.52 
	571.91,587.7 570.35,591.87 566.43,594.22 "/>
<line class="st0" x1="532.65" y1="517.08" x2="532.65" y2="553.13"/>
<polyline class="st0" points="581.43,741.62 581.43,736.13 581.36,501.32 "/>
<polyline class="st0" points="409.04,601.76 419.57,623.83 419.57,710.67 "/>
<path class="st0" d="M366.66,677.42l4.65-3.76c0,0,30.78,24.52,48.26,24"/>
<line class="st0" x1="372.09" y1="656.21" x2="419.57" y2="653.57"/>
<path class="st0" d="M372.09,641.3c0,0,21.43-19.05,43.06-26.74"/>
<path class="st0" d="M419.57,673.65c0,0,86.87,7.57,161.8,7.57h234.98v67.96"/>
<line class="st0" x1="816.35" y1="708.35" x2="1034.55" y2="708.35"/>
<polyline class="st0" points="816.35,480.87 816.35,602.83 816.35,681.22 "/>
<line class="st0" x1="1033.53" y1="602.83" x2="816.35" y2="602.83"/>
<line class="st0" x1="816.35" y1="492.87" x2="1032.46" y2="492.87"/>
<path class="st0" d="M581.43,513.22c0,0,30.91-10.22,234.91-11.89"/>
<polygon class="st0" points="795.02,486.74 799.91,487.52 801.67,482.43 799.72,482.43 "/>
<path class="st0" d="M659.04,518.43c0,0-3.91,39.91-2.61,117.13c0,0,0.04,0.68,0.46,1.74c0.69,1.72,2.39,4.44,6.58,6.86h50.87
	c0,0,6.26,0.78,6.52-7.3s-3.21-69.61,3.13-118.43c0,0-1.57-5.74-5.22-6.52s-50.35,0-50.35,0S663.48,510.61,659.04,518.43z"/>
<polygon class="st0" points="651.22,637.91 651.22,644.19 658,649.91 722.43,649.91 729.22,645.48 729.22,637.91 720.87,636.87 
	719.91,641.11 718.07,643.39 713.11,644.19 663.48,644.17 658.98,640.6 656.9,637.31 "/>
<polyline class="st0" points="658.27,528.57 663.35,528.57 665.89,524.11 665.89,520 668.04,519.02 715.2,519.02 716.96,520 
	716.96,523.8 718.52,527.43 722.94,527.58 "/>
<circle class="st0" cx="703.08" cy="570.93" r="6.13"/>
<polyline class="st0" points="681.15,583.78 678.02,583.78 676.65,581.04 676.65,577.88 679.39,575.57 679.39,567.35 677.83,565.59 
	677.83,561.67 684.48,561.67 684.48,565.59 682.91,567.35 682.91,575.57 685.65,577.88 685.65,581.04 684.28,583.78 681.15,583.78 
	"/>
<path class="st0" d="M615.41,698.43h22.7c0,0,2.93,0.59,3.72,4.11v24.55c0,0,0.34,4.01-4.55,4.06c-4.89,0.05-22.35,0-22.35,0
	s-3.47,0.2-3.52-4.3c-0.05-4.5,0-24.7,0-24.7S611.5,698.63,615.41,698.43z"/>
<path class="st0" d="M568.65,698.43h6.26c0,0,2.05,0.2,2.15,2.74c0.1,2.54,0,24.75,0,24.75s-0.29,2.64-3.33,2.74
	c-3.03,0.1-5.58,0-5.58,0s-2.93-0.59-2.84-2.74c0.1-2.15,0-25.83,0-25.83S565.23,698.43,568.65,698.43z"/>
<polygon class="st0" points="548.11,696.18 544.1,698.92 536.96,698.92 536.96,700.39 551.24,700.39 554.47,697.75 553.49,696.18 
	"/>
<polygon class="st0" points="553.68,721.13 558.48,721.13 559.16,722.7 555.45,726.12 542.83,726.12 542.83,724.65 549.97,724.65 
	"/>
<circle class="st0" cx="798.98" cy="670.9" r="7.48"/>
<line class="st0" x1="795.22" y1="670.9" x2="802.85" y2="670.9"/>
<path class="st0" d="M779.57,702.93v22.5c0,0-0.59,4.7,5.48,4.7c6.07,0,26.22,0,26.22,0s5.09,0.98,5.09-4.3c0-5.28,0-23.87,0-23.87
	s-0.39-3.33-5.48-3.52c-5.09-0.2-27.2,0-27.2,0S779.57,698.83,779.57,702.93z"/>
<path class="st0" d="M790.52,708.35c0,0-4.7-0.13-4.7,4.96c0,5.09,4.7,6.07,4.7,6.07h16.83c0,0,3.33-1.63,3.52-5.51
	c0.2-3.88-4.4-5.51-4.4-5.51L790.52,708.35z"/>
<circle class="st0" cx="793.07" cy="713.89" r="1.57"/>
<circle class="st0" cx="803.04" cy="713.89" r="1.57"/>
<polygon class="st0" points="630.35,714.81 626.61,714.81 617.17,716.43 617.17,717.74 626.61,718.65 630.35,718.65 632.17,716.73 
	"/>
<path class="st0" d="M457.13,645.41v21.52c0,0,0.39,4.01,6.07,4.21c5.67,0.2,15.07,0,15.07,0s6.07-0.49,6.07-4.99s0-20.25,0-20.25
	s-0.2-4.7-5.48-4.6c-5.28,0.1-16.53,0-16.53,0S457.13,641.21,457.13,645.41z"/>
<circle class="st0" cx="470.73" cy="656.35" r="9.17"/>
<circle class="st0" cx="470.73" cy="656.35" r="1.76"/>
<ellipse class="st0" cx="757.16" cy="715.88" rx="7.14" ry="4.47"/>
</svg>
