<?xml version="1.0" encoding="UTF-8" standalone="no"?>
<svg
   xmlns:dc="http://purl.org/dc/elements/1.1/"
   xmlns:cc="http://creativecommons.org/ns#"
   xmlns:rdf="http://www.w3.org/1999/02/22-rdf-syntax-ns#"
   xmlns:svg="http://www.w3.org/2000/svg"
   xmlns="http://www.w3.org/2000/svg"
   xmlns:sodipodi="http://sodipodi.sourceforge.net/DTD/sodipodi-0.dtd"
   xmlns:inkscape="http://www.inkscape.org/namespaces/inkscape"
   xml:space="preserve"
   style="enable-background:new 0 0 1711.5 361.8;"
   viewBox="0 0 1711.5 361.8"
   y="0px"
   x="0px"
   sodipodi:docname="FBW-Logo-White.svg"
   inkscape:version="1.0 (4035a4fb49, 2020-05-01)"
   inkscape:export-ydpi="96"
   inkscape:export-xdpi="96"
   inkscape:export-filename="N:\!Mod REPOs\fbw-branding\png\FBW-Logo.png"
   id="Layer_1"
   version="1.1"><metadata
   id="metadata20"><rdf:RDF><cc:Work
       rdf:about=""><dc:format>image/svg+xml</dc:format><dc:type
         rdf:resource="http://purl.org/dc/dcmitype/StillImage" /><dc:title></dc:title></cc:Work></rdf:RDF></metadata><defs
   id="defs18" />
<style
   id="style2"
   type="text/css">
	.st0{fill:#01C2CB;}
	.st1{fill:#649AAE;}
	.st2{fill:#595757;}
	.st3{fill:#679AAF;}
	.st4{fill:#585858;}
	.st5{fill:#06C4CC;}
	.st6{fill:#679BB0;}
	.st7{fill:#05C4CD;}
	.st8{fill:#06C2CB;}
	.st9{fill:#595555;}
	.st10{fill:#565959;}
	.st11{fill:#595858;}
</style>
<sodipodi:namedview
   showgrid="false"
   pagecolor="#ffffff"
   objecttolerance="10"
   inkscape:zoom="0.41490262"
   inkscape:window-y="0"
   inkscape:window-x="2280"
   inkscape:window-width="1374"
   inkscape:window-maximized="0"
   inkscape:window-height="1008"
   inkscape:pageshadow="2"
   inkscape:pageopacity="0"
   inkscape:document-rotation="0"
   inkscape:cy="470.9771"
   inkscape:cx="518.55326"
   inkscape:current-layer="Layer_1"
   id="namedview49"
   guidetolerance="10"
   gridtolerance="10"
   borderopacity="1"
   bordercolor="#666666">
	</sodipodi:namedview>
<path
   d="M199.9,286.9c-0.7,0.1-1.5,0.2-2.2,0.3c-1,0-2.1,0-3.1,0H5.7c-1.5,0-2.9-0.1-4.4-0.1  c-0.6-0.1-1.1-0.5-1.2-1.1c0-0.1-0.1-0.3-0.1-0.4c0-4.3,0-8.6,0-12.8c0-0.9,0.6-1.7,1.5-1.9c3.4-1,6.8-2,10.2-3  c10.5-3.1,20.8-6.5,30.9-10.5c14.4-5.7,28.1-13,40.9-21.8c11.4-7.9,21.8-17.1,31.1-27.4c9.6-10.6,17.9-22.3,25-34.7  c7.4-12.9,14.5-26,21.4-39.2c16.9-32.2,33.9-64.4,50.7-96.7c3.2-6.1,6.4-12.3,9.6-18.4c0.8-1.4,1.5-2.9,2.4-4.2  c4.9-7.9,13.1-13.2,22.3-14.4c1.9-0.3,3.8-0.4,5.7-0.4c13,0,25.9,0,38.9,0c1.3-0.1,2.7,0,4,0.3c0.2,1.9-0.6,3.5-1.2,5.1  c-4.7,14.1-9.4,28.2-14.1,42.3l-78.4,234.9C200.6,284.1,200.3,285.5,199.9,286.9L199.9,286.9z"
   class="st0"
   id="path8" />
<path
   d="M199.9,286.9c0.4-1.4,0.7-2.9,1.2-4.2l78.4-234.9c4.7-14.1,9.4-28.2,14.1-42.3  c0.5-1.7,1.4-3.3,1.2-5.1c0.9-0.2,1.7-0.3,2.6-0.3c11.6,0,23.3,0,35,0c0.7,0,1.4,0.2,2.1,0.4c0.2,0.1,0.4,0.4,0.5,0.6  c0.1,0.3,0.1,0.6,0.1,0.9c-1,5.7-1.9,11.3-2.9,17c-1,6.1-2,12.2-3,18.3c-0.7,4.3-1.5,8.7-2.2,13s-1.4,8.7-2.2,13.1  s-1.4,8.7-2.2,13.1s-1.5,8.7-2.2,13.1c-0.8,4.8-1.6,9.6-2.4,14.4c-1,6.1-2,12.2-3,18.3c-0.7,4.3-1.5,8.7-2.2,13s-1.4,8.7-2.2,13.1  l-2.3,13.5c-0.7,4.4-1.4,8.7-2.2,13.1l-2.3,13.5l-2.2,13.1c-0.7,4.4-1.4,8.7-2.2,13.1l-2.3,13.5l-2.2,13.1l-2.3,13.5l-2.2,13.1  c-0.8,4.5-1.5,9-2.3,13.5c-0.2,1.2-0.5,2.3-0.6,3.5c-0.4,2.6-0.7,2.8-3.5,2.7c-0.4,0-0.9,0-1.3,0c-26.3,0-52.5,0-78.8,0  C202.8,287.2,201.4,287.1,199.9,286.9L199.9,286.9z"
   class="st1"
   id="path10" />
<path
   style="fill:#ffffff"
   d="M1220.2,102.6c-0.6,2-1.3,4-1.8,5.9c-10.7,36.8-21.4,73.5-32.2,110.3  c-5.9,20.1-11.7,40.2-17.6,60.2c-1.4,4.8-0.4,4.2-5.6,4.2c-4.1,0-8.3,0-12.4,0c-0.6,0-1.2,0-1.8-0.1c-0.3-0.1-0.5-0.3-0.7-0.5  c-0.4-0.8-0.7-1.6-0.9-2.5l-46.8-146.5l-13.8-43.4c-0.3-1.1-0.7-2.3-1-3.4c0-0.4,0.2-0.9,0.7-1c0.1,0,0.3-0.1,0.4-0.1  c4.6,0,9.2,0,13.7,0c0.8,0,1.5,0.5,1.6,1.2l3.9,12.7l23.2,75.6l26.9,87.9c0.4,1.3,0.9,2.5,1.3,3.7c0,0.1,0.2,0.2,0.3,0.2  c0.3,0.2,0.6,0.1,0.7-0.2c0.4-1.1,0.8-2.2,1.1-3.3l24.8-85.3l25.8-88.7c0.3-1,0.7-1.9,1-2.9c0.4-0.1,0.9-0.2,1.3-0.3  c5.2,0,10.3,0,15.5,0c0.3,0,0.6,0,0.9,0.1c0.6,0,1.1,0.4,1.3,1c0.6,2,1.2,3.9,1.8,5.9l23.8,81l25.9,88.2c0.4,1.4,0.8,2.8,1.3,4.4  c0.4-0.3,1-0.5,1.1-0.8c1-2.9,1.9-5.9,2.8-8.9c13.9-46.3,27.7-92.6,41.6-138.8c2.8-9.5,5.6-18.9,8.4-28.4c0.3-1.1,0.7-2.2,1.1-3.3  c0.2-0.3,0.6-0.6,1-0.8c0.1-0.1,0.3-0.1,0.4-0.1c4.3,0,8.6,0,12.8,0c0.6,0,1,0.5,0.9,1.1c0,0,0,0.1,0,0.1c-0.3,1-0.6,2-0.9,3  l-7.9,24.9l-43,135.6c-3.1,9.7-6.1,19.4-9.2,29.1c-0.3,0.8-0.5,1.7-0.8,2.5c-0.3,0.7-1,1.2-1.7,1.2c-4.9,0-9.7,0-14.6,0  c-1,0-1.5-0.5-1.9-1.6s-0.6-2-0.9-3l-21.5-73.8c-9.7-33.4-19.5-66.7-29.2-100.1c-0.2-0.6-0.4-1.1-0.7-1.6  C1220.9,102.9,1220.5,102.8,1220.2,102.6L1220.2,102.6z"
   class="st2"
   id="path14" />
<path
   style="fill:#ffffff"
   d="M721.8,145.8V14c0-1.5,0-2.9,0.1-4.4c0.1-0.9,0.8-1.6,1.8-1.6c3.7,0,7.4,0,11.1,0  c0.9,0,1.6,0.7,1.6,1.6c0,0,0,0.1,0,0.1c0,1.5,0,2.9,0,4.4v106.1c0,1.5,0,3,0.1,4.4c0.1,0.3,0.2,0.5,0.3,0.7c0.2,0.3,0.6,0,1-0.7  c2-3.8,3.9-7.6,5.9-11.4c1.1-2.1,2.3-4.1,3.3-6.2c0.8-1.6,1.9-3,3.1-4.3c5.1-5.4,11-9.9,17.5-13.4c6.9-3.7,14.4-6.2,22.1-7.4  c6.5-1.1,13.2-1.6,19.8-1.4c12.5,0.5,24.6,2.9,35.8,8.6c9.5,4.8,17.9,11.5,24.8,19.6c8.8,10.6,15.2,22.9,18.9,36.2  c1.8,6.4,3.2,12.9,4,19.5c0.7,5,1.1,10,1.1,15c0,2.9,0.1,5.9-0.1,8.8c-0.2,5.3-0.7,10.6-1.4,15.8c-0.6,4.8-1.6,9.6-2.8,14.3  c-2.6,10.3-6.7,20.2-12.2,29.3c-9.5,15.6-23.9,27.7-40.9,34.4c-6.3,2.5-12.9,4.3-19.6,5.3c-6.6,1.1-13.2,1-19.8,0.9  c-7.7-0.2-15.3-1.5-22.5-4.1c-10.1-3.5-19.2-9.4-26.4-17.3c-1-1.1-1.8-2.4-2.3-3.7c-2.3-4.9-4.7-9.8-7-14.8c-0.5-0.9-1-1.8-1.5-2.7  c-0.1-0.2-0.5-0.2-0.7-0.2c0,0-0.2,0.2-0.2,0.3c0,1.3-0.1,2.6-0.1,4v29.6c0,3.4-0.1,3.9-3.6,3.9c-2.7,0-5.3,0-8,0s-2.9-0.4-3-3.2  c0-1.3,0-2.7,0-4L721.8,145.8z M736.4,185.9L736.4,185.9c0,4.4,0,8.8,0,13.3c0,6.8,0.6,13.5,1.9,20.2c1.5,9,4.5,17.7,8.9,25.8  c6.2,11.3,16,20.3,27.8,25.6c8.9,3.9,18.6,5.9,28.4,5.8c2.5-0.1,5-0.3,7.5-0.6c2.8-0.3,5.6-0.7,8.3-1.3c7.6-1.8,14.9-4.8,21.5-9  c3.5-2.2,6.8-4.7,9.8-7.6c9.5-8.8,16-19.6,20.6-31.5c4.7-12.2,6.6-25,7-38c0.2-5.4,0-10.9-0.5-16.3c-0.6-6.3-1.6-12.6-3-18.7  c-1.9-8.3-4.9-16.4-8.9-23.9c-4.9-9.5-11.8-17.7-20.3-24.2c-6.1-4.7-13.1-8.1-20.5-10.1c-6.3-1.7-12.7-2.6-19.2-2.6  c-3.4,0-6.8,0.3-10.1,0.7c-5.7,0.6-11.3,1.9-16.7,3.9c-10.6,3.9-19.8,10.8-26.5,19.8c-3.6,4.9-6.5,10.2-8.7,15.8  c-2.6,6.7-4.4,13.7-5.5,20.9c-1,6.4-1.6,12.9-1.7,19.4V185.9z"
   class="st3"
   id="path16" />
<path
   style="fill:#ffffff"
   d="M1708.2,222.2c0,0.5,0,0.9-0.1,1.4c-3.1,12.8-9,24.7-17.2,35c-11.2,13.7-25.5,22.5-42.6,27  c-10.4,2.7-21.3,3.6-32,2.5c-22.7-2.3-41.3-12.1-55.6-30c-7.1-9.1-12.4-19.4-15.7-30.5c-2.2-7.2-3.8-14.5-4.8-22  c-1.1-7.9-1.5-15.8-1.4-23.8c0.3-15.4,2.9-30.5,8.7-44.9c4.9-12.5,12.5-23.8,22.3-33.2c12-11.5,27.2-19.1,43.6-21.8  c8.7-1.5,17.6-1.8,26.4-0.6c21,2.8,38.2,12.4,51.1,29.4c6.6,8.9,11.6,18.8,14.9,29.4c2.3,7.3,3.9,14.8,4.8,22.4  c0.9,7.6,1.2,15.3,0.8,22.9c0,0.6-0.1,1.2-0.1,1.8c-0.1,0.8-0.6,1.2-1.5,1.3c-1.3,0-2.7,0-4,0h-145.6c-1.5,0-3,0-4.4,0.1  c-0.9,0-1.7,0.7-1.8,1.6c0,0.1,0,0.3,0,0.4c0.2,2.8,0.3,5.6,0.6,8.4c1,10.9,3.4,21.6,7.2,31.8c2.9,7.7,7,15,12.2,21.4  c9.4,11.9,22.9,20.1,37.8,22.9c13.7,2.8,27.9,1.5,40.8-3.7c13.9-5.5,24.6-14.9,32.3-27.7c3.2-5.3,5.7-11,7.6-16.9  c0.4-1.1,0.7-2.3,1-3.4c0.3-1.1,0.8-1.5,1.8-1.5c1.6,0,3.3,0,4.9,0c2.1,0,4.1,0,6.2,0C1707,221.9,1707.6,222,1708.2,222.2  L1708.2,222.2z M1625.4,176.2h65.9c1.3,0,2.7,0,4,0c1.1,0,1.7-0.6,1.6-1.6c0-0.4,0-0.9-0.1-1.3c-0.5-4.4-0.7-8.8-1.3-13.2  c-1.1-7.7-3-15.3-5.7-22.7c-2.5-6.8-5.9-13.2-10.2-19c-6.1-8.4-14.2-15.1-23.6-19.5c-12.5-5.8-26.6-7.6-40.2-5.1  c-14.2,2.5-27.3,9.3-37.4,19.6c-8.3,8.4-14.7,18.6-18.5,29.8c-3.1,8.8-5,17.9-5.7,27.2c-0.5,6.4-1.1,5.8,5.6,5.8  C1581.7,176.2,1603.5,176.2,1625.4,176.2L1625.4,176.2z"
   class="st4"
   id="path18" />
<path
   style="fill:#ffffff"
   d="M535.4,360.5c-0.1-0.9-0.2-1.8-0.2-2.7c0-2.6,0-5.3,0.1-8c0-0.7,0.6-1.2,1.3-1.2c0.1,0,0.2,0,0.2,0  c0.2,0,0.3,0,0.4,0.1c5.1,0.8,10.3,1,15.4,0.5c5.2-0.4,10.1-2.2,14.4-5.3c3.5-2.5,6.6-5.4,9.3-8.8c3.7-4.6,6.9-9.6,9.6-14.8  c3.6-6.8,6.8-13.8,9.5-20.9c1.5-3.7,2.9-7.4,4.3-11c-0.3-2-0.9-3.8-1.8-5.6c-5.6-14.6-11.2-29.2-16.8-43.7L541,134.8l-17.5-45.4  c-0.3-0.8-0.6-1.7-0.9-2.5c-0.1-0.4,0.2-0.9,0.6-1c0.4,0,0.9-0.1,1.3-0.1c4,0,8,0,12,0c0.5,0,1,0.1,1.5,0.2c0.4,0.6,0.8,1.2,1.1,1.8  c1,2.6,2,5.3,2.9,7.9l42.7,115.3c7,18.8,13.9,37.6,20.9,56.4c0.3,1,0.8,1.9,1.2,2.8c0.1,0.1,0.2,0.2,0.3,0.2c0.3,0,0.6-0.1,0.7-0.3  c0.4-0.9,0.8-1.9,1.2-2.9l42.6-115.3c7.6-20.6,15.2-41.2,22.9-61.8c0.4-1,0.7-2,1.1-2.9c0.3-0.5,0.6-1,1-1.4c4.8,0,9.5,0,14.2,0  c0.8,0,1.2,0.7,0.9,1.6c-0.2,0.7-0.5,1.4-0.8,2.1l-7,18.2l-34.5,89.5c-11.5,29.8-23,59.7-34.5,89.5c-4,10.3-8.2,20.5-13,30.5  c-3.8,8-8.2,15.7-13.3,22.9c-2.8,3.8-5.9,7.4-9.3,10.6c-4.7,4.5-10.5,7.8-16.8,9.5c-2.6,0.7-5.2,1.2-7.8,1.4  c-4.7,0.3-9.4,0.2-14.2-0.1C538.9,361.5,537.1,361.1,535.4,360.5L535.4,360.5z"
   class="st5"
   id="path28" />
<path
   style="fill:#ffffff"
   d="M1062.8,86.1c0.7-0.1,1.4-0.2,2.2-0.3c3.2,0,6.5,0,9.7,0c4.1,0,4.5-0.3,2.8,3.9  c-4.4,11.1-8.6,22.3-12.8,33.4l-14.9,38.8c-3.9,10-7.7,20.1-11.6,30.1l-14.9,38.8l-11.5,29.7l-10.6,27.6c-2.7,7-5.5,14-8.6,20.8  c-2.2,5-4.5,9.9-7.1,14.7c-3.2,6.2-6.9,12.1-11,17.6c-3.2,4.4-7,8.4-11.3,11.8c-6.7,5.4-15.1,8.4-23.7,8.6c-3.8,0.1-7.7,0-11.5-0.1  c-1,0-2.1-0.1-3.1-0.2c-2.9-0.5-3.2-0.8-3.2-3.7c0-2.5,0-5,0-7.5c0-1.1,0.7-1.7,1.7-1.5c4.2,0.9,8.5,0.7,12.8,0.7  c7,0.1,13.8-2.3,19.2-6.8c2.8-2.2,5.3-4.7,7.5-7.5c5.2-6.6,9.6-13.9,13-21.5c3.4-7.2,6.3-14.6,9.2-22c0.4-0.8,0.7-1.6,0.9-2.5  c0.1-0.7,0.1-1.5,0-2.2c-0.2-0.9-0.5-1.7-0.9-2.5c-7.1-18.6-14.3-37.1-21.4-55.7c-5.9-15.3-11.8-30.5-17.7-45.8  c-5-12.9-10-25.9-14.9-38.8L919.9,115l-9.7-25.2c-0.4-1-0.6-2-0.9-2.9c0-0.4,0.3-0.8,0.7-1c0.4-0.1,0.9-0.2,1.3-0.2c4,0,8,0,12,0  c1.1-0.1,2,0.6,2.3,1.7l0.9,2.5c5.5,14.9,11.1,29.9,16.6,44.8c3.5,9.5,7,19.1,10.5,28.6l15.9,42.7c3.3,8.8,6.5,17.7,9.8,26.5  l13.2,35.6c0.3,0.7,0.6,1.3,1,1.9c0.2,0.1,0.5,0.1,0.7-0.1c0.3-0.5,0.6-1,0.8-1.5l8.1-22c5.7-15.3,11.4-30.7,17.1-46  c3.5-9.5,7-19.1,10.5-28.6c5.3-14.4,10.7-28.7,16-43.1c2.5-6.8,5-13.6,7.5-20.3s5-13.5,7.6-20.3  C1062.2,87.5,1062.5,86.9,1062.8,86.1L1062.8,86.1z"
   class="st6"
   id="path30" />
<path
   style="fill:#ffffff"
   d="M442.9,2.7c0.2,0.4,0.4,0.8,0.5,1.2c0,3.2,0,6.5,0,9.7c0,0.6-0.5,1.1-1.1,1.1c0,0,0,0,0,0  c-1-0.1-2-0.3-3.1-0.4c-4.8-0.8-9.7-1-14.5-0.6c-2.2,0.2-4.4,0.7-6.5,1.4c-7.2,2.2-12.9,7.6-15.6,14.6c-1.4,3.4-2.3,7-2.6,10.7  c-0.6,6.2-0.9,12.3-0.9,18.5c0.1,8.1,0,16.2,0,24.3c0,1,0,2.1,0.2,3.1c0.1,0.4,0.5,0.7,0.9,0.8c1.2,0.1,2.3,0.2,3.5,0.2  c10.3,0,20.7,0,31,0c5.5,0,5.1-0.5,5.1,4.9c0,1.9,0,3.8-0.1,5.8c0,0.8-0.7,1.4-1.5,1.3c-1.3,0-2.7,0.1-4,0.1c-10.3,0-20.7,0-31,0  c-4.2,0-4.1-0.1-4.1,4.1v174.2c0,6.1,0.7,5.4-5.4,5.4c-2.5,0-5,0-7.5-0.1c-0.6,0-1.1-0.5-1.2-1.1c0-0.4-0.1-0.9-0.1-1.3V105.2  c0-1.6-0.1-3.2-0.2-4.8c-0.1-0.3-0.3-0.5-0.6-0.6c-0.7-0.2-1.4-0.2-2.2-0.2c-4.4,0-8.9,0-13.3,0c-1.2,0-2.4,0-3.5,0  c-0.8,0-1.5-0.6-1.6-1.5c0-0.1,0-0.2,0-0.3c0-2.9,0-5.9,0-8.8c0-0.8,0.6-1.4,1.4-1.4c0,0,0,0,0,0c1,0,2.1-0.1,3.1-0.1  c3.8,0,7.7,0,11.5,0c1.2,0,2.4,0,3.5,0c1.2,0,1.7-0.6,1.7-1.6c0-1.3,0-2.7,0-4c0-8.8,0-17.7,0-26.5c0-5.9,0.2-11.8,0.9-17.7  c0.6-6.2,2.5-12.2,5.5-17.7c5.9-10.6,15-16.7,27-18.6c5-0.7,10-0.8,15-0.2c1.9,0.2,3.8,0.3,5.7,0.6C440.4,2,441.7,2.4,442.9,2.7  L442.9,2.7z"
   class="st7"
   id="path32" />
<path
   style="fill:#ffffff"
   d="M472.5,137.4V13.6c0-1.5,0-2.9,0.1-4.4c0.1-0.6,0.6-1.1,1.1-1.1c1.3-0.1,2.6-0.1,4-0.1  c2.2,0,4.4,0,6.6,0c1.9,0,2.3,0.4,2.3,2.4c0,1.3,0,2.6,0,4v226.4c0,5.6,0.1,11.2,0.2,16.8c0,2.2,0.3,4.4,0.8,6.6  c0.3,1.3,0.7,2.6,1.3,3.8c1,2.2,2.9,3.8,5.2,4.5c1.8,0.6,3.7,1,5.6,0.9c2.6-0.1,5.3-0.2,8-0.3c0.4,0.1,0.8,0.3,1,0.7  c0,0.3,0.1,0.6,0.1,0.9c0,2.5,0,5,0,7.5c0,1.5-0.6,2.2-2,2.4c-5.7,0.7-11.5,1.2-17.2,0.3c-1.5-0.2-2.9-0.6-4.3-1  c-4.5-1.3-8.1-4.6-10-8.8c-1.6-3.5-2.4-7.3-2.5-11.1c-0.2-3.8-0.2-7.7-0.3-11.5c0-3.7,0-7.4,0-11L472.5,137.4z"
   class="st8"
   id="path34" />
<path
   style="fill:#ffffff"
   d="M1465.7,282.7c-0.8,0.5-1.7,0.6-2.6,0.5c-3.7-0.1-7.3,0.3-11-0.3c-0.2-0.5-0.3-0.9-0.3-1.4  c0-1.3,0-2.6,0-4V91.4c0-1.5,0-2.9,0.1-4.4c0.1-0.6,0.5-1.1,1.1-1.1c3.8,0,7.7,0,11.5,0c0.8,0,1.4,0.5,1.5,1.3c0,0,0,0,0,0  c0,1.3,0.1,2.7,0.1,4c0,10.2,0,20.3,0,30.5c0,0.7,0.1,1.4,0.3,2.1c0,0,0.4,0.1,0.4,0c0.4-0.6,0.7-1.3,1-1.9c2.5-5.7,5-11.3,7.4-17  c0.9-2,2-3.9,3.5-5.6c5.6-6.9,12.9-12.3,21.2-15.5c6.9-2.7,14.4-3.6,21.7-2.7c1.3,0.2,2.6,0.4,3.9,0.6c0.6,0.2,1,0.7,1.1,1.3  c0,3.1,0,6.2,0,9.3c0,0.8-0.6,1.3-1.5,1.3c-1.6,0-3.2,0-4.9,0c-4.3,0-8.5,0.5-12.7,1.5c-11.3,2.7-21.2,9.6-27.5,19.4  c-3.7,5.5-6.5,11.6-8.5,17.9c-1.7,5.3-2.9,10.8-3.7,16.4c-1.2,8.6-1.8,17.3-1.8,26c0,34.5,0,69,0,103.5  C1465.9,279.6,1466.2,281.2,1465.7,282.7L1465.7,282.7z"
   class="st9"
   id="path36" />
<path
   style="fill:#ffffff"
   d="M1382.9,184.7V91.4c0-1.5,0.1-2.9,0.1-4.4c0.1-0.6,0.6-1.1,1.2-1.1c4,0,7.9,0,11.9,0  c0.5,0,1,0.6,1.1,1.2s0.1,0.9,0.1,1.3c0,1.2,0,2.4,0,3.5v185.3c0,1.6,0,3.2-0.1,4.9c-0.1,0.6-0.6,1.1-1.2,1.1c-4,0-8,0-11.9,0  c-0.6-0.1-1.1-0.6-1.1-1.2c0-1.5-0.1-3-0.1-4.4L1382.9,184.7z"
   class="st10"
   id="path38" />
<path
   style="fill:#ffffff"
   d="M1389.8,55.6c-6-0.3-10.6-5.3-10.4-11.3c0.2-5.8,5.1-10.4,10.9-10.4c6,0.1,10.8,5,10.7,10.9  s-5,10.8-10.9,10.7C1390,55.6,1389.9,55.6,1389.8,55.6z"
   class="st11"
   id="path40" />
</svg>
