<?xml version="1.0" encoding="UTF-8" standalone="no"?>
<svg
   xmlns:dc="http://purl.org/dc/elements/1.1/"
   xmlns:cc="http://creativecommons.org/ns#"
   xmlns:rdf="http://www.w3.org/1999/02/22-rdf-syntax-ns#"
   xmlns:svg="http://www.w3.org/2000/svg"
   xmlns="http://www.w3.org/2000/svg"
   xmlns:sodipodi="http://sodipodi.sourceforge.net/DTD/sodipodi-0.dtd"
   xmlns:inkscape="http://www.inkscape.org/namespaces/inkscape"
   version="1.1"
   x="0px"
   y="0px"
   viewBox="0 0 100 125"
   enable-background="new 0 0 100 100"
   xml:space="preserve"
   id="svg12"
   sodipodi:docname="no-internet.svg"
   inkscape:version="1.0.1 (3bc2e813f5, 2020-09-07)"><metadata
     id="metadata18"><rdf:RDF><cc:Work
         rdf:about=""><dc:format>image/svg+xml</dc:format><dc:type
           rdf:resource="http://purl.org/dc/dcmitype/StillImage" /></cc:Work></rdf:RDF></metadata><defs
     id="defs16" /><sodipodi:namedview
     pagecolor="#ffffff"
     bordercolor="#666666"
     borderopacity="1"
     objecttolerance="10"
     gridtolerance="10"
     guidetolerance="10"
     inkscape:pageopacity="0"
     inkscape:pageshadow="2"
     inkscape:window-width="2114"
     inkscape:window-height="1271"
     id="namedview14"
     showgrid="false"
     inkscape:zoom="8.064"
     inkscape:cx="50"
     inkscape:cy="57.539683"
     inkscape:window-x="0"
     inkscape:window-y="371"
     inkscape:window-maximized="0"
     inkscape:current-layer="svg12" /><g
     id="g6"
     style="fill:#ffffff"><path
       d="M45.398,43.339c1.514-0.161,3.05-0.249,4.607-0.249c11.857,0.001,22.574,4.799,30.343,12.565   c0.567,0.567,1.486,0.567,2.053,0c0.567-0.567,0.567-1.486,0-2.053l0,0c-8.285-8.287-19.747-13.416-32.396-13.415   c-2.448,0-4.849,0.197-7.193,0.566L29.58,27.521c6.395-2.234,13.264-3.447,20.415-3.448c16.517,0.002,31.422,6.407,42.548,16.962   c0.581,0.552,1.5,0.528,2.052-0.054c0.552-0.581,0.528-1.5-0.054-2.052C82.907,27.886,67.271,21.169,49.995,21.17   c-7.97,0-15.606,1.454-22.671,4.095L7.484,5.425c-0.567-0.567-1.486-0.567-2.053,0c-0.567,0.567-0.567,1.486,0,2.053l18.965,18.965   c-7.04,3.034-13.45,7.269-18.948,12.487c-0.582,0.552-0.606,1.471-0.054,2.052c0.552,0.582,1.471,0.606,2.052,0.054v0   c5.531-5.248,12.013-9.467,19.155-12.387l12.787,12.787c-8.387,1.99-15.889,6.274-21.78,12.166c-0.567,0.567-0.567,1.486,0,2.053   c0.567,0.567,1.486,0.567,2.053,0c5.935-5.934,13.596-10.126,22.167-11.779l16.712,16.712c-2.684-0.901-5.554-1.397-8.536-1.397   c-7.395,0-14.115,3.003-18.958,7.848c-0.567,0.567-0.567,1.486,0,2.053c0.567,0.567,1.486,0.567,2.053,0   c4.324-4.322,10.303-6.998,16.905-6.998c6.602,0,12.581,2.676,16.905,6.998c0.119,0.119,0.259,0.198,0.402,0.267l25.213,25.213   c0.567,0.567,1.486,0.567,2.053,0c0.567-0.567,0.567-1.486,0-2.053L45.398,43.339z"
       id="path2"
       style="fill:#ffffff" /><path
       d="M50.005,77c-4.964,0-8.99,4.035-9,9c0.01,4.974,4.035,9,9,9c4.974,0,9-4.026,9-9C59.005,81.036,54.979,77,50.005,77z    M54.321,90.306c-1.113,1.113-2.622,1.79-4.316,1.79c-1.684,0-3.203-0.678-4.306-1.79c-1.103-1.103-1.781-2.613-1.79-4.307   c0.01-1.684,0.687-3.203,1.79-4.306c1.103-1.103,2.623-1.79,4.306-1.79c1.694,0,3.203,0.687,4.316,1.79   c1.103,1.103,1.781,2.622,1.781,4.306C56.102,87.693,55.424,89.203,54.321,90.306z"
       id="path4"
       style="fill:#ffffff" /></g></svg>
