<svg width="32" height="32" viewBox="0 0 32 32" fill="none" xmlns="http://www.w3.org/2000/svg">
<path d="M31.0943 0.907136C29.8866 -0.300574 27.9287 -0.300481 26.721 0.907136L20.1781 7.44993L9.58854 3.84721C9.44221 3.79738 9.28298 3.80082 9.13887 3.85686L4.29504 5.739C4.19612 5.76943 4.10295 5.824 4.02454 5.90222C3.76954 6.15722 3.76797 6.5695 4.01953 6.82654C4.02148 6.82858 4.02361 6.83062 4.02566 6.83266C4.05628 6.86329 4.09015 6.89112 4.12717 6.91571L14.0992 13.5287L7.34646 20.2815L3.11489 18.8419C3.03573 18.815 2.94962 18.8168 2.87158 18.8471L0.258416 19.8625C0.188636 19.8942 0.148549 19.918 0.1041 19.9625C-0.0344405 20.101 -0.0348117 20.3162 0.103173 20.4552C0.103822 20.4559 0.104564 20.4566 0.105214 20.4571C0.121731 20.4738 0.140104 20.4888 0.160148 20.5019L5.17231 23.8259C5.19374 24.5878 5.49439 25.3434 6.07602 25.9251C6.65756 26.5066 7.41318 26.8073 8.17511 26.8286L11.4991 31.8408C11.5725 31.9513 11.7015 32.0121 11.8335 31.9978C11.9655 31.9836 12.0787 31.8968 12.1267 31.773L13.154 29.1294C13.1843 29.0515 13.1861 28.9652 13.1592 28.886L11.7196 24.6544L18.4722 17.9017L25.0855 27.8737C25.2212 28.0782 25.4595 28.1902 25.7037 28.1639C25.9477 28.1375 26.1568 27.9773 26.2457 27.7486L28.1443 22.862C28.2003 22.7179 28.2037 22.5587 28.1539 22.4124L24.5513 11.8227L31.094 5.27995C32.3018 4.07289 32.3018 2.11485 31.0943 0.907136Z" fill="white" fill-opacity="0.78"/>
</svg>
